<svg xmlns="http://www.w3.org/2000/svg" viewBox="0 0 24 24">
  <path fill="currentColor" d="M9 4.5a.75.75 0 0 1 .721.544l.813 2.846a3.75 3.75 0 0 0 2.576 2.576l2.846.813a.75.75 0 0 1 0 1.442l-2.846.813a3.75 3.75 0 0 0-2.576 2.576l-.813 2.846a.75.75 0 0 1-1.442 0l-.813-2.846a3.75 3.75 0 0 0-2.576-2.576l-2.846-.813a.75.75 0 0 1 0-1.442l2.846-.813A3.75 3.75 0 0 0 8.19 7.89l.813-2.846A.75.75 0 0 1 9 4.5z"/>
  <path fill="var(--icon-color-accent, #ff8700)" d="M18 1.5a.75.75 0 0 1 .728.568l.258 1.036c.236.94.97 1.674 1.91 1.91l1.036.258a.75.75 0 0 1 0 1.456l-1.036.258c-.94.236-1.674.97-1.91 1.91l-.258 1.036a.75.75 0 0 1-1.456 0l-.258-1.036a2.625 2.625 0 0 0-1.91-1.91l-1.036-.258a.75.75 0 0 1 0-1.456l1.036-.258a2.625 2.625 0 0 0 1.91-1.91l.258-1.036A.75.75 0 0 1 18 1.5z"/>
</svg>
